<svg xmlns="http://www.w3.org/2000/svg" viewBox="45 45 80 80"
 >

  <g>

    <path fill='red'
      d="m67.66,81.58s-.05.03-.05.05q-.1,1.19-1.3,1.19h-.25c-.81,0-.84-.03-.84-.85v-10.55c0-.8.09-.85.88-.69.97.21,1.94.42,2.9.62.17.01.32.09.44.2.02.3-.23.43-.4.58-.88.78-1.28,1.8-1.42,2.92-.13.99-.06,1.99.22,2.95.45,1.56,1.45,2.59,3.08,2.89,1.69.31,3.26.11,4.47-1.28.82-.94,1.09-2.09,1.13-3.3.05-.97-.12-1.94-.49-2.83-.21-.51-.11-.62.45-.52.52.09,1.02.22,1.54.28.57.08.85.33.94.94.32,2.16.21,4.23-.99,6.13-1.07,1.68-2.67,2.54-4.59,2.76-2.04.24-3.97-.08-5.59-1.49-.03-.02-.1-.01-.15-.03Z" />
    <path fill='red'
      d="m71.53,89.3c1.65-.11,3.29.4,4.6,1.42.59.47,1.06,1.07,1.37,1.75.26.54.18.7-.41.89-.37.12-.76.16-1.11.31-.43.18-.62,0-.79-.33-.76-1.44-2.09-1.97-3.57-2.01-2.71-.07-4.46,1.73-4.52,4.32-.02.94-.08,1.87.29,2.79.6,1.49,1.62,2.37,3.24,2.58.6.08,1.2.08,1.8-.02,1.08-.19,1.98-.66,2.59-1.6.34-.54.44-.76,1.28-.46.31.11.65.14.96.24.18.05.38.12.37.37.02.2-.08.39-.25.49-.17.1-.34.18-.52.24-2.4.83-4.79,1.64-7.19,2.48-.39.15-.82.13-1.2-.04-1.71-.74-2.92-1.95-3.55-3.72-.72-2.02-.67-4.02.2-5.97,1.06-2.39,3-3.51,5.54-3.7.28-.03.56,0,.89,0Z" />
    <path fill='red'
      d="m97.78,69.17c2.38.07,4.36.72,5.75,2.56,1.16,1.52,1.47,3.3,1.36,5.17-.01.19-.03.38-.06.58-.09.54-.15.58-.71.46-.4-.09-.8-.18-1.2-.28-.57-.14-.63-.2-.57-.79.1-.85.03-1.71-.21-2.54-.73-2.38-2.49-3.09-4.75-2.95-1.12.05-2.16.56-2.88,1.42-.53.61-.79,1.3-.96,2.07-.17.79-.2.78-.99.61-.32-.07-.65-.11-.97-.19-.59-.14-.66-.27-.53-.87.54-2.59,2.36-4.44,5.1-5.04.54-.09,1.09-.15,1.63-.19Z" />
    <path fill='red'
      d="m91.38,101.95c-.88.85-2.01,1.4-3.22,1.57-2.71.4-5.17-.39-6.45-2.81-.08-.14-.15-.29-.23-.44-.14-.28-.06-.49.22-.6.51-.19,1.03-.38,1.56-.54.38-.12.52.14.68.44.43.78,1.03,1.35,1.9,1.62.98.31,2.03.29,2.99-.07.98-.35,1.74-1.14,2.04-2.14.22-.6.32-1.23.31-1.87-.02-.49.19-.78.65-.92s.89-.28,1.33-.45c.3-.11.42.03.43.31v5.57c0,.33.03.66.09.98.09.53-.14.74-.69.73-.33,0-.66,0-.99-.04-.57-.05-.63-.14-.61-.73,0-.14,0-.27,0-.62Z" />
    <path fill='red'
      d="m96.82,83.16c-2.19.02-3.99-.49-5.4-1.95-1.31-1.35-1.91-3-1.85-4.88.01-.47.09-.55.54-.48.49.08.97.2,1.46.29.46.09.63.38.65.82,0,.36-.02.71.09,1.07.49,1.69,1.74,2.74,3.51,2.95.83.1,1.66.03,2.46-.2,1.07-.32,1.79-1.04,2.27-2.04.31-.65.32-.64,1.01-.5.35.08.71.14,1.05.24.7.2.71.28.41.95-.83,1.84-2.29,2.92-4.18,3.47-.72.21-1.45.31-2,.26Z" />
    <path fill='red'
      d="m99.64,85.36c.14,1.14.07,2.24.08,3.34,0,.11-.03.22-.03.33.02.5.14.64.64.64.8,0,1.6-.02,2.4-.03.22,0,.44-.01.66-.01.31,0,.6-.03.66.43.09.69.08.81-.4.99-1.03.41-2.08.71-3.21.58-.38-.04-.74-.02-.76.5-.01.14-.11.27-.24.31-.62.23-1.24.45-1.86.66-.15.05-.26-.08-.33-.2-.05-.09-.03-.22-.07-.32-.1-.28.18-.63-.11-.86s-.64-.09-.97-.1c-.5-.01-.99,0-1.49,0s-.58-.1-.54-.59c.02-.19.07-.38.08-.57.06-.79.06-.79.88-.8.52,0,1.05,0,1.57-.03.57-.04.59-.06.6-.64.02-.75.03-1.49,0-2.24-.02-.46.13-.71.59-.83.6-.17,1.17-.43,1.84-.57Z" />
    <path fill='red'
      d="m98.54,97.14c0-.86.03-1.72-.01-2.57-.03-.51.2-.77.64-.92s.89-.3,1.33-.46c.21-.1.45-.06.61.1.18.18.06.33-.03.51-.07.13-.05.32-.05.48,0,1.71-.03,3.43-.01,5.14,0,1.17.6,1.73,1.75,1.9.72.1,1.42-.04,2.13-.07.4-.02.57.1.51.51-.01.22-.01.44,0,.66,0,.85-.03.9-.84.98-.99.11-1.99.07-2.97-.12-1.94-.41-2.94-1.6-3.04-3.67-.05-.83-.02-1.66-.02-2.49Z" />
    <path fill='red'
      d="m82.23,89.3c-.23.34-.18.71-.18,1.08,0,.99-.02,1.99,0,2.99.03.88-.08,1.76-.11,2.64-.02.63.03,1.27.14,1.89.06.37-.08.58-.41.7-.42.14-.83.31-1.25.44-.52.16-.62.1-.77-.43-.1-.4-.15-.82-.14-1.23v-7.39c0-.69.01-.7.68-.71s1.32,0,2.04,0Z" />
    <path fill='red'
      d="m84.67,70.63c.22.06.28-.14.4-.23,1.1-.9,2.39-1.21,3.77-1.2.9,0,1.06.21,1.03,1.09,0,.08-.02.16-.02.25-.03.92-.03.88-.93.82-1.52-.1-2.61.33-3.56,1.89-.39.64-.37.66-1.1.49-.43-.09-.86-.17-1.29-.27-.59-.14-.7-.25-.71-.83-.02-.83-.02-1.66,0-2.49.02-.74.2-.9.95-.93h.42c.87.01.9.05.96.95.01.15-.06.32.09.45Z" />
    <path fill='red'
      d="m82.22,82.82h-.17c-1.06,0-1.2-.19-1.12-1.28.14-2.2.14-4.41,0-6.61-.05-.78.16-.97.94-.81.38.08.75.16,1.13.22s.55.31.52.64c-.21,2.43,0,4.85-.08,7.28v.17c0,.27-.11.41-.4.39s-.55,0-.83,0h0Z" />
    <path fill='red'
      d="m74.01,68.89c2.04.1,3.94.92,5.24,2.87.17.25.48.53.28.8s-.55.06-.84-.01c-.38-.09-.76-.16-1.13-.24-.67-.14-1.33-.3-1.92-.71-.56-.37-1.23-.54-1.89-.47-1.28.09-2.53-.12-3.76-.45-.21-.06-.49-.05-.52-.3s.25-.33.43-.45c.85-.58,2.5-1.05,4.12-1.03Z" />
    <path fill='red'
      d="m92.37,92.15v1.91q0,.85-.78,1.13c-.31.11-.62.23-.93.33-.6.2-.75.11-.75-.51,0-1.55,0-3.1,0-4.64v-.58c0-.29.1-.48.43-.47h1.58c.36,0,.47.2.47.53,0,.77,0,1.55,0,2.32Z" />
    <path fill='red'
      d="m69.14,67.79c-.09.67-.06,1.39-.06,2.1,0,.35-.13.51-.49.47-.54-.07-1.08-.19-1.61-.34-.33-.09-.44-.28-.44-.6,0-1.3,0-2.6,0-3.89,0-.43.24-.59.62-.61.22-.02.44,0,.66,0,1.34,0,1.34,0,1.3,1.36-.01.49-.09.99.01,1.53Z" />
    <path fill='red'
      d="m77.94,101.07c-.92,1.49-3.97,2.51-5.77,1.96.98-.53,1.97-.73,2.9-1.06.91-.32,1.8-.73,2.87-.89Z" />
  </g>
</svg>